<svg xmlns="http://www.w3.org/2000/svg" version="1.1" xmlns:xlink="http://www.w3.org/1999/xlink" xmlns:svgjs="http://svgjs.dev/svgjs" width="1440" height="560" preserveAspectRatio="none" viewBox="0 0 1440 560"><g mask="url(&quot;#SvgjsMask1001&quot;)" fill="none"><path d="M66.62 335.57L131.58 373.07L131.58 448.07L66.62 485.57L1.67 448.07L1.67 373.07zM196.53 110.57L261.49 148.07L261.49 223.07L196.53 260.57L131.58 223.07L131.58 148.07zM456.35 560.57L521.3 598.07L521.3 673.07L456.35 710.57L391.39 673.07L391.39 598.07zM975.98 560.57L1040.93 598.07L1040.93 673.07L975.98 710.57L911.02 673.07L911.02 598.07zM1040.93 -1.93L1105.88 35.57L1105.88 110.57L1040.93 148.07L975.98 110.57L975.98 35.57zM1040.93 223.07L1105.88 260.57L1105.88 335.57L1040.93 373.07L975.98 335.57L975.98 260.57z" stroke="#03305d" stroke-width="2"></path><path d="M59.12 335.57 a7.5 7.5 0 1 0 15 0 a7.5 7.5 0 1 0 -15 0zM124.08 373.07 a7.5 7.5 0 1 0 15 0 a7.5 7.5 0 1 0 -15 0zM124.08 448.07 a7.5 7.5 0 1 0 15 0 a7.5 7.5 0 1 0 -15 0zM59.12 485.57 a7.5 7.5 0 1 0 15 0 a7.5 7.5 0 1 0 -15 0zM-5.83 448.07 a7.5 7.5 0 1 0 15 0 a7.5 7.5 0 1 0 -15 0zM-5.83 373.07 a7.5 7.5 0 1 0 15 0 a7.5 7.5 0 1 0 -15 0zM189.03 110.57 a7.5 7.5 0 1 0 15 0 a7.5 7.5 0 1 0 -15 0zM253.99 148.07 a7.5 7.5 0 1 0 15 0 a7.5 7.5 0 1 0 -15 0zM253.99 223.07 a7.5 7.5 0 1 0 15 0 a7.5 7.5 0 1 0 -15 0zM189.03 260.57 a7.5 7.5 0 1 0 15 0 a7.5 7.5 0 1 0 -15 0zM124.08 223.07 a7.5 7.5 0 1 0 15 0 a7.5 7.5 0 1 0 -15 0zM124.08 148.07 a7.5 7.5 0 1 0 15 0 a7.5 7.5 0 1 0 -15 0zM448.85 560.57 a7.5 7.5 0 1 0 15 0 a7.5 7.5 0 1 0 -15 0zM513.8 598.07 a7.5 7.5 0 1 0 15 0 a7.5 7.5 0 1 0 -15 0zM513.8 673.07 a7.5 7.5 0 1 0 15 0 a7.5 7.5 0 1 0 -15 0zM448.85 710.57 a7.5 7.5 0 1 0 15 0 a7.5 7.5 0 1 0 -15 0zM383.89 673.07 a7.5 7.5 0 1 0 15 0 a7.5 7.5 0 1 0 -15 0zM383.89 598.07 a7.5 7.5 0 1 0 15 0 a7.5 7.5 0 1 0 -15 0zM968.48 560.57 a7.5 7.5 0 1 0 15 0 a7.5 7.5 0 1 0 -15 0zM1033.43 598.07 a7.5 7.5 0 1 0 15 0 a7.5 7.5 0 1 0 -15 0zM1033.43 673.07 a7.5 7.5 0 1 0 15 0 a7.5 7.5 0 1 0 -15 0zM968.48 710.57 a7.5 7.5 0 1 0 15 0 a7.5 7.5 0 1 0 -15 0zM903.52 673.07 a7.5 7.5 0 1 0 15 0 a7.5 7.5 0 1 0 -15 0zM903.52 598.07 a7.5 7.5 0 1 0 15 0 a7.5 7.5 0 1 0 -15 0zM1033.43 -1.93 a7.5 7.5 0 1 0 15 0 a7.5 7.5 0 1 0 -15 0zM1098.38 35.57 a7.5 7.5 0 1 0 15 0 a7.5 7.5 0 1 0 -15 0zM1098.38 110.57 a7.5 7.5 0 1 0 15 0 a7.5 7.5 0 1 0 -15 0zM1033.43 148.07 a7.5 7.5 0 1 0 15 0 a7.5 7.5 0 1 0 -15 0zM968.48 110.57 a7.5 7.5 0 1 0 15 0 a7.5 7.5 0 1 0 -15 0zM968.48 35.57 a7.5 7.5 0 1 0 15 0 a7.5 7.5 0 1 0 -15 0zM1033.43 223.07 a7.5 7.5 0 1 0 15 0 a7.5 7.5 0 1 0 -15 0zM1098.38 260.57 a7.5 7.5 0 1 0 15 0 a7.5 7.5 0 1 0 -15 0zM1098.38 335.57 a7.5 7.5 0 1 0 15 0 a7.5 7.5 0 1 0 -15 0zM1033.43 373.07 a7.5 7.5 0 1 0 15 0 a7.5 7.5 0 1 0 -15 0zM968.48 335.57 a7.5 7.5 0 1 0 15 0 a7.5 7.5 0 1 0 -15 0zM968.48 260.57 a7.5 7.5 0 1 0 15 0 a7.5 7.5 0 1 0 -15 0z" fill="#03305d"></path><path d="M64.9 64.79L108.21 89.79L108.21 139.79L64.9 164.79L21.6 139.79L21.6 89.79zM21.6 439.79L64.9 464.79L64.9 514.79L21.6 539.79L-21.7 514.79L-21.7 464.79zM151.51 214.79L194.81 239.79L194.81 289.79L151.51 314.79L108.21 289.79L108.21 239.79zM108.21 289.79L151.51 314.79L151.51 364.79L108.21 389.79L64.9 364.79L64.9 314.79zM108.21 439.79L151.51 464.79L151.51 514.79L108.21 539.79L64.9 514.79L64.9 464.79zM281.42 139.79L324.72 164.79L324.72 214.79L281.42 239.79L238.11 214.79L238.11 164.79zM281.42 289.79L324.72 314.79L324.72 364.79L281.42 389.79L238.11 364.79L238.11 314.79zM324.72 514.79L368.02 539.79L368.02 589.79L324.72 614.79L281.42 589.79L281.42 539.79zM411.32 64.79L454.63 89.79L454.63 139.79L411.32 164.79L368.02 139.79L368.02 89.79zM454.63 139.79L497.93 164.79L497.93 214.79L454.63 239.79L411.32 214.79L411.32 164.79zM497.93 214.79L541.23 239.79L541.23 289.79L497.93 314.79L454.63 289.79L454.63 239.79zM584.53 514.79L627.84 539.79L627.84 589.79L584.53 614.79L541.23 589.79L541.23 539.79zM757.74 364.79L801.05 389.79L801.05 439.79L757.74 464.79L714.44 439.79L714.44 389.79zM1104.16 514.79L1147.46 539.79L1147.46 589.79L1104.16 614.79L1060.86 589.79L1060.86 539.79zM1147.46 139.79L1190.77 164.79L1190.77 214.79L1147.46 239.79L1104.16 214.79L1104.16 164.79zM1190.77 364.79L1234.07 389.79L1234.07 439.79L1190.77 464.79L1147.46 439.79L1147.46 389.79zM1147.46 439.79L1190.77 464.79L1190.77 514.79L1147.46 539.79L1104.16 514.79L1104.16 464.79zM1234.07 289.79L1277.37 314.79L1277.37 364.79L1234.07 389.79L1190.77 364.79L1190.77 314.79zM1320.67 -10.21L1363.98 14.79L1363.98 64.79L1320.67 89.79L1277.37 64.79L1277.37 14.79zM1363.98 364.79L1407.28 389.79L1407.28 439.79L1363.98 464.79L1320.67 439.79L1320.67 389.79zM1363.98 514.79L1407.28 539.79L1407.28 589.79L1363.98 614.79L1320.67 589.79L1320.67 539.79zM1407.28 289.79L1450.58 314.79L1450.58 364.79L1407.28 389.79L1363.98 364.79L1363.98 314.79zM1407.28 439.79L1450.58 464.79L1450.58 514.79L1407.28 539.79L1363.98 514.79L1363.98 464.79z" stroke="rgba(6, 80, 156, 0.93)" stroke-width="2"></path></g><defs><mask id="SvgjsMask1001"><rect width="1440" height="560" fill="#ffffff"></rect></mask></defs></svg>